<?xml version="1.0" encoding="UTF-8" standalone="no"?>
<!-- Generator: Adobe Illustrator 25.1.0, SVG Export Plug-In . SVG Version: 6.00 Build 0)  -->

<svg
   xmlns:dc="http://purl.org/dc/elements/1.1/"
   xmlns:cc="http://creativecommons.org/ns#"
   xmlns:rdf="http://www.w3.org/1999/02/22-rdf-syntax-ns#"
   xmlns:svg="http://www.w3.org/2000/svg"
   xmlns="http://www.w3.org/2000/svg"
   xmlns:sodipodi="http://sodipodi.sourceforge.net/DTD/sodipodi-0.dtd"
   xmlns:inkscape="http://www.inkscape.org/namespaces/inkscape"
   version="1.1"
   id="Layer_1"
   x="0px"
   y="0px"
   viewBox="0 0 24 24"
   style="enable-background:new 0 0 24 24;"
   xml:space="preserve"
   sodipodi:docname="favicon2.svg"
   inkscape:version="0.92.4 (5da689c313, 2019-01-14)"><metadata
   id="metadata11"><rdf:RDF><cc:Work
       rdf:about=""><dc:format>image/svg+xml</dc:format><dc:type
         rdf:resource="http://purl.org/dc/dcmitype/StillImage" /><dc:title></dc:title></cc:Work></rdf:RDF></metadata><defs
   id="defs9" /><sodipodi:namedview
   pagecolor="#ffffff"
   bordercolor="#666666"
   borderopacity="1"
   objecttolerance="10"
   gridtolerance="10"
   guidetolerance="10"
   inkscape:pageopacity="0"
   inkscape:pageshadow="2"
   inkscape:window-width="1920"
   inkscape:window-height="1017"
   id="namedview7"
   showgrid="false"
   inkscape:zoom="9.8333333"
   inkscape:cx="10.220339"
   inkscape:cy="12"
   inkscape:window-x="-8"
   inkscape:window-y="-8"
   inkscape:window-maximized="1"
   inkscape:current-layer="Layer_1" />
<style
   type="text/css"
   id="style2">
	.st0{fill:#FFFFFF;}
</style>

<path
   style="fill:#ffffff;stroke-width:3.77952743"
   d="M 9.9838559,21.914059 C 9.9110125,21.822988 9.811934,21.401578 9.7636733,20.977495 9.6166402,19.685426 9.6524012,19.714492 8.8179365,20.208972 6.9488376,21.316503 4.2654426,21.78776 2.1791047,21.374864 1.1230092,21.165858 0.73588096,20.942753 0.86146207,20.615492 0.91515022,20.475549 1.2124739,20.414091 2.0034957,20.379333 c 0.7979094,-0.03506 1.2325911,-0.125828 1.7119948,-0.357571 0.8856078,-0.428059 2.1889742,-1.798479 2.9465075,-3.098108 0.9351863,-1.604425 2.3944725,-3.021974 3.800257,-3.69158 1.896426,-0.903323 3.381233,-1.026587 5.65443,-0.469421 2.169818,0.531818 3.356785,0.250457 3.923456,-0.930021 C 20.338102,11.21193 20.442553,9.4122195 20.237846,8.4261445 20.051681,7.5293942 19.377117,6.1209521 18.771358,5.3642214 L 18.308977,4.7866103 17.484629,4.828958 C 16.895011,4.859314 16.537148,4.8090748 16.227848,4.6526165 14.70704,3.8833336 14.740479,2.7850603 16.308203,2.013273 17.054941,1.6456538 17.231319,1.6084824 17.95367,1.6664636 c 1.02676,0.082418 1.425364,0.2931842 2.536042,1.3409439 2.262063,2.1339052 3.342018,4.9771086 3.164737,8.3318075 -0.15631,2.957921 -0.975216,4.775905 -2.859769,6.348759 -0.662438,0.55287 -0.679981,0.5852 -0.766885,1.413602 -0.04892,0.466294 -0.153774,1.310436 -0.233018,1.875875 l -0.144072,1.028072 h -1.927647 -1.927647 l -0.13237,-0.835308 -0.132371,-0.835309 -1.486028,-0.03597 -1.486027,-0.03597 -0.180743,0.871342 -0.180741,0.871342 -1.040423,0.03703 C 10.424449,22.06879 10.07706,22.03054 9.9838499,21.91412 Z m 2.0728311,-3.118781 c 0.271551,-1.376917 0.565942,-2.563422 0.654203,-2.636672 0.256808,-0.213119 0.578868,-0.0076 0.575799,0.36692 -0.0016,0.186815 -0.117192,0.857181 -0.257019,1.489738 -0.139838,0.632541 -0.254238,1.22738 -0.254238,1.321865 0,0.134176 0.274503,0.163744 1.25297,0.135087 l 1.252971,-0.03673 v -0.835309 c 0,-0.805332 0.01154,-0.835324 0.321273,-0.835324 0.31067,0 0.328904,0.04872 0.55239,1.477868 0.344975,2.205957 0.286737,2.056161 0.799411,2.056161 0.246035,0 0.447338,-0.06056 0.447338,-0.134632 0,-0.215774 0.381952,-3.614474 0.458729,-4.081876 0.06122,-0.372596 0.112912,-0.420515 0.416005,-0.385529 0.336889,0.03885 0.344957,0.05965 0.302934,0.778891 -0.02375,0.406415 0.01062,0.738942 0.07622,0.738942 0.245484,0 1.935945,-1.283905 2.431059,-1.846383 1.250447,-1.420585 1.744381,-2.973358 1.763185,-5.542941 C 22.86404,8.8924825 22.639722,7.7680266 21.947372,6.3016034 21.189866,4.6971923 19.494854,2.8667473 18.446153,2.5206358 c -0.59145,-0.1951931 -1.449906,-0.055856 -2.070738,0.3360331 -0.572909,0.3616538 -0.61293,0.4638344 -0.303046,0.7737149 0.44974,0.449749 1.29153,0.5770648 1.920524,0.2904675 0.331954,-0.1511757 0.377527,-0.1237031 1.108554,0.6711552 0.849226,0.9233277 1.652146,2.4479905 1.905097,3.617587 0.09479,0.438243 0.132856,1.252348 0.09617,2.0561615 -0.07108,1.557311 -0.303298,2.13471 -1.150034,2.859475 -0.958624,0.820555 -1.881458,0.907983 -4.050601,0.383739 -2.386243,-0.576686 -4.085625,-0.309927 -5.9825091,0.939159 -1.0102722,0.66525 -1.7099991,1.463174 -2.6772785,3.052998 -0.7031431,1.155677 -2.2020706,2.807124 -2.6878168,2.961291 -0.5474423,0.173761 -0.2265467,0.275304 0.5424935,0.171682 1.1602989,-0.156352 2.3387016,-0.560339 3.4138523,-1.170385 0.9061715,-0.514151 0.9390881,-0.549729 0.9137318,-0.987594 -0.040863,-0.705579 -0.011988,-0.775491 0.3206843,-0.775491 0.3542485,0 0.3395755,-0.04736 0.6664015,2.152545 l 0.214781,1.445735 h 0.468266 0.468267 z M 17.168945,2.9554673 c 0.06451,-0.3349856 0.489858,-0.3723547 0.489858,-0.043107 0,0.1839156 -0.08254,0.2664554 -0.266441,0.2664554 -0.183911,0 -0.253116,-0.069213 -0.223417,-0.2234247 z m 1.822524,18.1184107 c 0.03569,-0.123704 0.1047,-0.678319 0.153363,-1.232526 l 0.08847,-1.007612 -0.399859,0.206774 c -0.423249,0.218872 -0.472661,0.346248 -0.589347,1.519319 l -0.07349,0.738943 H 18.5486 c 0.2496,0 0.400031,-0.07634 0.442879,-0.224898 z"
   id="path832"
   inkscape:connector-curvature="0"
   sodipodi:nodetypes="cccsccccccccccccsccscccccccccccccccccccsccsscsscccssccccccccccccccccssccccccssccccccccscc" /></svg>