<?xml version="1.0" encoding="UTF-8" standalone="no"?>
<!-- Generator: Adobe Illustrator 25.1.0, SVG Export Plug-In . SVG Version: 6.00 Build 0)  -->

<svg
   xmlns:dc="http://purl.org/dc/elements/1.1/"
   xmlns:cc="http://creativecommons.org/ns#"
   xmlns:rdf="http://www.w3.org/1999/02/22-rdf-syntax-ns#"
   xmlns:svg="http://www.w3.org/2000/svg"
   xmlns="http://www.w3.org/2000/svg"
   xmlns:sodipodi="http://sodipodi.sourceforge.net/DTD/sodipodi-0.dtd"
   xmlns:inkscape="http://www.inkscape.org/namespaces/inkscape"
   version="1.1"
   id="Layer_1"
   x="0px"
   y="0px"
   viewBox="0 0 24 24"
   style="enable-background:new 0 0 24 24;"
   xml:space="preserve"
   sodipodi:docname="favicon.svg"
   inkscape:version="0.92.4 (5da689c313, 2019-01-14)"><metadata
   id="metadata11"><rdf:RDF><cc:Work
       rdf:about=""><dc:format>image/svg+xml</dc:format><dc:type
         rdf:resource="http://purl.org/dc/dcmitype/StillImage" /><dc:title></dc:title></cc:Work></rdf:RDF></metadata><defs
   id="defs9" /><sodipodi:namedview
   pagecolor="#ffffff"
   bordercolor="#666666"
   borderopacity="1"
   objecttolerance="10"
   gridtolerance="10"
   guidetolerance="10"
   inkscape:pageopacity="0"
   inkscape:pageshadow="2"
   inkscape:window-width="1920"
   inkscape:window-height="1017"
   id="namedview7"
   showgrid="false"
   inkscape:zoom="27.812867"
   inkscape:cx="11.941116"
   inkscape:cy="13.435052"
   inkscape:window-x="-8"
   inkscape:window-y="-8"
   inkscape:window-maximized="1"
   inkscape:current-layer="Layer_1" />
<style
   type="text/css"
   id="style2">
	.st0{fill:#FFFFFF;}
</style>

<path
   style="fill:#4d4d4d;stroke-width:3.77952743"
   d="M 9.9838559,21.914059 C 9.9110125,21.822988 9.811934,21.401578 9.7636733,20.977495 9.6166402,19.685426 9.6524012,19.714492 8.8179365,20.208972 6.9488376,21.316503 4.2654426,21.78776 2.1791047,21.374864 1.1230092,21.165858 0.73588096,20.942753 0.86146207,20.615492 0.91515022,20.475549 1.2124739,20.414091 2.0034957,20.379333 c 0.7979094,-0.03506 1.2325911,-0.125828 1.7119948,-0.357571 0.8856078,-0.428059 2.1889742,-1.798479 2.9465075,-3.098108 0.9351863,-1.604425 2.3944725,-3.021974 3.800257,-3.69158 1.896426,-0.903323 3.381233,-1.026587 5.65443,-0.469421 2.169818,0.531818 3.356785,0.250457 3.923456,-0.930021 C 20.338102,11.21193 20.442553,9.4122195 20.237846,8.4261445 20.051681,7.5293942 19.377117,6.1209521 18.771358,5.3642214 L 18.308977,4.7866103 17.484629,4.828958 C 16.895011,4.859314 16.537148,4.8090748 16.227848,4.6526165 14.70704,3.8833336 14.740479,2.7850603 16.308203,2.013273 17.054941,1.6456538 17.231319,1.6084824 17.95367,1.6664636 c 1.02676,0.082418 1.425364,0.2931842 2.536042,1.3409439 2.262063,2.1339052 3.342018,4.9771086 3.164737,8.3318075 -0.15631,2.957921 -0.975216,4.775905 -2.859769,6.348759 -0.662438,0.55287 -0.679981,0.5852 -0.766885,1.413602 -0.04892,0.466294 -0.153774,1.310436 -0.233018,1.875875 l -0.144072,1.028072 h -1.927647 l -0.489464,-0.03596 -0.09642,-0.871262 -0.132371,-0.835309 -2.960166,0.03594 -1.486027,-0.03597 -0.180743,0.871342 -0.180741,0.871342 -1.040423,0.03703 C 10.424449,22.06879 10.07706,22.03054 9.9838499,21.91412 Z M 17.168945,2.9554673 c 0.06451,-0.3349856 0.489858,-0.3723547 0.489858,-0.043107 0,0.1839156 -0.08254,0.2664554 -0.266441,0.2664554 -0.183911,0 -0.253116,-0.069213 -0.223417,-0.2234247 z"
   id="path832"
   inkscape:connector-curvature="0"
   sodipodi:nodetypes="cccsccccccccccccsccsccccccccccccccccsscc" /></svg>